<svg width="229" height="32" viewBox="0 0 229 32" fill="none" xmlns="http://www.w3.org/2000/svg">
<path d="M48.0377 27.8201C48.3329 27.9718 48.5662 28.185 48.7339 28.4524C48.9016 28.7197 48.9854 29.0305 48.9854 29.3809C48.9854 29.9301 48.7886 30.3853 48.3949 30.7502C48.0012 31.1151 47.5237 31.2958 46.955 31.2958H44.057V24.5973H46.7399C47.294 24.5973 47.7606 24.7743 48.1434 25.1284C48.5261 25.4825 48.7193 25.9233 48.7193 26.4544C48.7193 27.0361 48.4897 27.4913 48.034 27.8237L48.0377 27.8201ZM46.7436 25.6306H45.1688V27.3901H46.7436C46.9878 27.3901 47.1956 27.307 47.3596 27.1372C47.5237 26.9674 47.6112 26.7579 47.6112 26.5086C47.6112 26.2593 47.5273 26.0497 47.3596 25.8835C47.1919 25.7137 46.9878 25.6306 46.7436 25.6306ZM46.955 30.2625C47.2138 30.2625 47.4289 30.1722 47.6075 29.9915C47.7861 29.8109 47.8736 29.5868 47.8736 29.3267C47.8736 29.0666 47.7861 28.8426 47.6075 28.6619C47.4289 28.4813 47.2138 28.3873 46.955 28.3873H45.1688V30.2625H46.955Z" fill="black"/>
<path d="M54.1798 31.2958L52.7509 28.857H51.4386V31.2958H50.3268V24.5973H53.0316C53.6367 24.5973 54.1507 24.8068 54.5699 25.2223C54.9891 25.6378 55.2042 26.1473 55.2042 26.747C55.2042 27.1734 55.0802 27.5672 54.8323 27.9213C54.5845 28.2753 54.26 28.5319 53.8627 28.6908L55.3974 31.2922H54.1798V31.2958ZM51.4386 25.6306V27.8707H53.0316C53.3268 27.8707 53.5784 27.7623 53.7861 27.5455C53.9939 27.3287 54.096 27.065 54.096 26.7506C54.096 26.4363 53.9939 26.1726 53.7861 25.9558C53.582 25.739 53.3305 25.6306 53.0316 25.6306H51.4386Z" fill="black"/>
<path d="M56.6222 24.5973H57.734V31.2958H56.6222V24.5973Z" fill="black"/>
<path d="M63.5155 24.5973H64.6273V31.2958H63.7597L60.5737 26.7506V31.2958H59.4619V24.5973H60.3295L63.5155 29.1425V24.5973Z" fill="black"/>
<path d="M72.9274 27.8309V28.2898C72.9274 29.2075 72.6212 29.959 72.0088 30.5443C71.3964 31.1296 70.5981 31.4186 69.6139 31.4186C68.5713 31.4186 67.711 31.0826 67.0294 30.4142C66.3513 29.7458 66.0123 28.9221 66.0123 27.9465C66.0123 26.971 66.3513 26.1545 67.0294 25.4825C67.7074 24.8105 68.5494 24.4708 69.5555 24.4708C70.1862 24.4708 70.7621 24.6153 71.2834 24.9008C71.8047 25.1862 72.2093 25.5728 72.5009 26.0569L71.5459 26.6025C71.3672 26.2846 71.0975 26.028 70.7439 25.8329C70.3903 25.6378 69.993 25.5403 69.5555 25.5403C68.8483 25.5403 68.2651 25.7715 67.8094 26.2304C67.3538 26.6892 67.1241 27.2637 67.1241 27.9538C67.1241 28.6438 67.3538 29.2147 67.8131 29.6663C68.2724 30.1179 68.8775 30.3456 69.6248 30.3456C70.2226 30.3456 70.7111 30.2083 71.0865 29.9301C71.462 29.6519 71.7026 29.2797 71.8047 28.8137H69.5446V27.8273H72.9238L72.9274 27.8309Z" fill="black"/>
<path d="M78.2168 30.2408H80.9653V31.2922H77.105V24.5937H78.2168V30.2372V30.2408Z" fill="black"/>
<path d="M83.2764 30.2408H86.2692V31.2922H82.1682V24.5937H86.2218V25.6451H83.2764V27.3865H85.9812V28.4307H83.2764V30.2372V30.2408Z" fill="black"/>
<path d="M92.1563 31.2958L91.6825 29.9481H88.8063L88.3324 31.2958H87.1259L89.5791 24.5973H90.9097L93.352 31.2958H92.1563ZM89.1708 28.9148H91.3143L90.2426 25.8908L89.1672 28.9148H89.1708Z" fill="black"/>
<path d="M98.306 31.2958L96.8807 28.857H95.5683V31.2958H94.4565V24.5973H97.1614C97.7665 24.5973 98.2804 24.8068 98.7033 25.2223C99.1262 25.6378 99.3339 26.1473 99.3339 26.747C99.3339 27.1734 99.21 27.5672 98.9621 27.9213C98.7142 28.2753 98.3934 28.5319 97.9925 28.6908L99.5271 31.2922H98.3096L98.306 31.2958ZM95.5647 25.6306V27.8707H97.1577C97.453 27.8707 97.7045 27.7623 97.9123 27.5455C98.1201 27.3287 98.2221 27.065 98.2221 26.7506C98.2221 26.4363 98.1201 26.1726 97.9123 25.9558C97.7081 25.739 97.4566 25.6306 97.1577 25.6306H95.5647Z" fill="black"/>
<path d="M104.805 24.5973H105.917V31.2958H105.05L101.864 26.7506V31.2958H100.755V24.5973H101.623L104.809 29.1425V24.5973H104.805Z" fill="black"/>
<path d="M107.641 24.5973H108.753V31.2958H107.641V24.5973Z" fill="black"/>
<path d="M114.535 24.5973H115.647V31.2958H114.779L111.593 26.7506V31.2958H110.485V24.5973H111.352L114.538 29.1425V24.5973H114.535Z" fill="black"/>
<path d="M123.947 27.8309V28.2898C123.947 29.2075 123.641 29.959 123.032 30.5443C122.419 31.1296 121.621 31.4186 120.637 31.4186C119.594 31.4186 118.734 31.0826 118.056 30.4142C117.378 29.7458 117.035 28.9221 117.035 27.9465C117.035 26.971 117.374 26.1545 118.056 25.4825C118.734 24.8105 119.576 24.4708 120.579 24.4708C121.209 24.4708 121.785 24.6153 122.306 24.9008C122.831 25.1862 123.236 25.5728 123.524 26.0569L122.569 26.6025C122.39 26.2846 122.12 26.028 121.767 25.8329C121.413 25.6378 121.02 25.5403 120.579 25.5403C119.871 25.5403 119.292 25.7715 118.832 26.2304C118.373 26.6892 118.147 27.2637 118.147 27.9538C118.147 28.6438 118.377 29.2147 118.84 29.6663C119.299 30.1179 119.9 30.3456 120.648 30.3456C121.246 30.3456 121.734 30.2083 122.109 29.9301C122.489 29.6519 122.726 29.2797 122.831 28.8137H120.571V27.8273H123.947V27.8309Z" fill="black"/>
<path d="M132.52 24.5973V25.6487H130.621V31.2958H129.509V25.6487H127.596V24.5973H132.52Z" fill="black"/>
<path d="M138.984 30.4106C138.306 31.0826 137.478 31.4186 136.497 31.4186C135.517 31.4186 134.689 31.0826 134.011 30.4106C133.333 29.7386 132.994 28.9148 132.994 27.9465C132.994 26.9783 133.333 26.1545 134.011 25.4825C134.689 24.8105 135.521 24.4708 136.497 24.4708C137.474 24.4708 138.306 24.8068 138.984 25.4825C139.662 26.1545 140.004 26.9783 140.004 27.9465C140.004 28.9148 139.665 29.7386 138.984 30.4106ZM134.795 29.6627C135.254 30.118 135.823 30.3456 136.497 30.3456C137.172 30.3456 137.741 30.118 138.203 29.6627C138.663 29.2075 138.892 28.633 138.892 27.9465C138.892 27.2601 138.663 26.6856 138.203 26.2304C137.741 25.7751 137.176 25.5475 136.497 25.5475C135.819 25.5475 135.254 25.7751 134.795 26.2304C134.336 26.6856 134.103 27.2601 134.103 27.9465C134.103 28.633 134.336 29.2075 134.795 29.6627Z" fill="black"/>
<path d="M145.294 30.2408H148.046V31.2922H144.185V24.5937H145.294V30.2372V30.2408Z" fill="black"/>
<path d="M149.241 24.5973H150.353V31.2958H149.241V24.5973Z" fill="black"/>
<path d="M156.04 25.6487H153.193V27.5238H155.945V28.5752H153.193V31.2922H152.085V24.5937H156.043V25.6451L156.04 25.6487Z" fill="black"/>
<path d="M158.57 30.2408H161.562V31.2922H157.462V24.5937H161.519V25.6451H158.573V27.3865H161.278V28.4307H158.573V30.2372L158.57 30.2408Z" fill="black"/>
<path d="M25.1633 12.5551L17.6431 18.354L10.1229 12.5551L14.1473 18.56C15.1024 19.9871 15.4633 21.7249 15.1534 23.4086L14.5775 26.5266L17.6431 24.3371L20.7052 26.5266L20.1292 23.4086C19.8194 21.7249 20.1802 19.9871 21.1353 18.56L25.1597 12.5551H25.1633Z" fill="#0D4744"/>
<path d="M8.93103 13.9931C10.8594 15.171 11.4973 17.6134 11.4973 17.6134C11.4973 17.6134 9.01123 18.1445 7.08288 16.963C5.15453 15.7852 4.5166 13.3428 4.5166 13.3428C4.5166 13.3428 7.00268 12.8117 8.93103 13.9931Z" fill="#0D4744"/>
<path d="M8.15806 7.27297C9.79844 8.82295 9.91144 11.3412 9.91144 11.3412C9.91144 11.3412 7.36704 11.3484 5.73031 9.80207C4.08993 8.25209 3.97693 5.73383 3.97693 5.73383C3.97693 5.73383 6.52133 5.7266 8.15806 7.27297Z" fill="#0D4744"/>
<path d="M15.1644 10.2718C15.4707 12.295 14.1292 14.1702 14.1292 14.1702C14.1292 14.1702 12.2956 12.7647 11.9894 10.7414C11.6832 8.71816 13.0247 6.84302 13.0247 6.84302C13.0247 6.84302 14.8582 8.24847 15.1644 10.2718Z" fill="#0D4744"/>
<path d="M19.1231 13.8667C19.1997 15.7527 17.7817 17.3388 17.7817 17.3388C17.7817 17.3388 16.2434 15.8683 16.1668 13.9823C16.0903 12.0963 17.5083 10.5102 17.5083 10.5102C17.5083 10.5102 19.0466 11.9807 19.1231 13.8667Z" fill="#0D4744"/>
<path d="M18.7987 7.18985C18.857 8.66395 17.7488 9.90321 17.7488 9.90321C17.7488 9.90321 16.5459 8.75428 16.4876 7.28017C16.4293 5.80607 17.5374 4.5668 17.5374 4.5668C17.5374 4.5668 18.7404 5.71574 18.7987 7.18985Z" fill="#0D4744"/>
<path d="M18.5326 2.01967C18.5763 3.15415 17.7233 4.10798 17.7233 4.10798C17.7233 4.10798 16.7974 3.2228 16.75 2.08831C16.7063 0.953832 17.5593 0 17.5593 0C17.5593 0 18.4852 0.885184 18.5326 2.01967Z" fill="#0D4744"/>
<path d="M11.7559 5.73742C12.0111 7.42469 10.892 8.99273 10.892 8.99273C10.892 8.99273 9.361 7.82212 9.10583 6.13123C8.85066 4.44396 9.96976 2.87592 9.96976 2.87592C9.96976 2.87592 11.5008 4.04653 11.7559 5.73742Z" fill="#0D4744"/>
<path d="M14.2421 3.6816C15.0113 4.74744 14.7999 6.20347 14.7999 6.20347C14.7999 6.20347 13.3381 5.9325 12.569 4.86667C11.7998 3.80083 12.0112 2.34479 12.0112 2.34479C12.0112 2.34479 13.473 2.61577 14.2421 3.6816Z" fill="#0D4744"/>
<path d="M6.78021 19.6475C8.35497 18.625 10.4328 19.008 10.4328 19.008C10.4328 19.008 9.95889 21.0493 8.38413 22.0718C6.80937 23.0943 4.73157 22.7113 4.73157 22.7113C4.73157 22.7113 5.20545 20.6699 6.78021 19.6475Z" fill="#0D4744"/>
<path d="M2.76688 18.112C4.14479 17.5845 5.67581 18.2203 5.67581 18.2203C5.67581 18.2203 4.97228 19.7089 3.59436 20.2364C2.21645 20.7639 0.685425 20.128 0.685425 20.128C0.685425 20.128 1.38896 18.6395 2.76688 18.112Z" fill="#0D4744"/>
<path d="M2.90894 14.4195C4.28321 14.9542 4.97945 16.4464 4.97945 16.4464C4.97945 16.4464 3.4448 17.0751 2.07053 16.5403C0.696256 16.0056 0 14.5134 0 14.5134C0 14.5134 1.53467 13.8848 2.90894 14.4195Z" fill="#0D4744"/>
<path d="M3.92603 10.7812C5.40237 10.7125 6.65269 11.7928 6.65269 11.7928C6.65269 11.7928 5.51172 12.9851 4.03539 13.0537C2.55905 13.1224 1.30872 12.0421 1.30872 12.0421C1.30872 12.0421 2.4497 10.8498 3.92603 10.7812Z" fill="#0D4744"/>
<path d="M11.1911 20.5435C12.3685 19.5319 14.1182 19.6222 14.1182 19.6222C14.1182 19.6222 13.9578 21.3492 12.7768 22.3608C11.5993 23.3725 9.84961 23.2822 9.84961 23.2822C9.84961 23.2822 10.01 21.5551 11.1911 20.5435Z" fill="#0D4744"/>
<path d="M26.3553 13.9931C24.427 15.171 23.7891 17.6134 23.7891 17.6134C23.7891 17.6134 26.2751 18.1445 28.2035 16.963C30.1318 15.7852 30.7698 13.3428 30.7698 13.3428C30.7698 13.3428 28.2837 12.8117 26.3553 13.9931Z" fill="#0D4744"/>
<path d="M27.1281 7.27297C25.4878 8.82295 25.3748 11.3412 25.3748 11.3412C25.3748 11.3412 27.9192 11.3484 29.5559 9.80207C31.1963 8.25209 31.3093 5.73383 31.3093 5.73383C31.3093 5.73383 28.7649 5.7266 27.1281 7.27297Z" fill="#0D4744"/>
<path d="M20.122 10.2718C19.8158 12.295 21.1572 14.1702 21.1572 14.1702C21.1572 14.1702 22.9908 12.7647 23.297 10.7414C23.6032 8.71816 22.2618 6.84302 22.2618 6.84302C22.2618 6.84302 20.4282 8.24847 20.122 10.2718Z" fill="#0D4744"/>
<path d="M23.5303 5.73742C23.2751 7.42469 24.3942 8.99273 24.3942 8.99273C24.3942 8.99273 25.9252 7.82212 26.1804 6.13123C26.4355 4.44396 25.3165 2.87592 25.3165 2.87592C25.3165 2.87592 23.7854 4.04653 23.5303 5.73742Z" fill="#0D4744"/>
<path d="M21.0442 3.6816C20.275 4.74744 20.4864 6.20347 20.4864 6.20347C20.4864 6.20347 21.9482 5.9325 22.7174 4.86667C23.4865 3.80083 23.2751 2.34479 23.2751 2.34479C23.2751 2.34479 21.8133 2.61577 21.0442 3.6816Z" fill="#0D4744"/>
<path d="M28.5061 19.6475C26.9313 18.625 24.8535 19.008 24.8535 19.008C24.8535 19.008 25.3274 21.0493 26.9022 22.0718C28.4769 23.0943 30.5547 22.7113 30.5547 22.7113C30.5547 22.7113 30.0808 20.6699 28.5061 19.6475Z" fill="#0D4744"/>
<path d="M32.5195 18.112C31.1416 17.5845 29.6106 18.2203 29.6106 18.2203C29.6106 18.2203 30.3141 19.7089 31.692 20.2364C33.07 20.7639 34.601 20.128 34.601 20.128C34.601 20.128 33.8974 18.6395 32.5195 18.112Z" fill="#0D4744"/>
<path d="M32.3773 14.4195C31.003 14.9542 30.3068 16.4464 30.3068 16.4464C30.3068 16.4464 31.8414 17.0751 33.2157 16.5403C34.59 16.0056 35.2862 14.5134 35.2862 14.5134C35.2862 14.5134 33.7515 13.8848 32.3773 14.4195Z" fill="#0D4744"/>
<path d="M31.3603 10.7812C29.884 10.7125 28.6337 11.7928 28.6337 11.7928C28.6337 11.7928 29.7746 12.9851 31.251 13.0537C32.7273 13.1224 33.9776 12.0421 33.9776 12.0421C33.9776 12.0421 32.8367 10.8498 31.3603 10.7812Z" fill="#0D4744"/>
<path d="M24.0952 20.5435C22.9178 19.5319 21.1681 19.6222 21.1681 19.6222C21.1681 19.6222 21.3285 21.3492 22.5096 22.3608C23.687 23.3725 25.4367 23.2822 25.4367 23.2822C25.4367 23.2822 25.2763 21.5551 24.0952 20.5435Z" fill="#0D4744"/>
<path d="M44.1188 18.1914H50.848V21.1758H40.9729V5.35083H50.735V8.33517H44.1188V11.7025H50.1626V14.6399H44.1188V18.1878V18.1914Z" fill="black"/>
<path d="M62.7098 21.1758L59.4947 15.6804H57.0997V21.1758H53.9539V5.35083H60.3404C61.8167 5.35083 63.0707 5.86388 64.106 6.88997C65.1412 7.91606 65.6552 9.1517 65.6552 10.5969C65.6552 11.576 65.3745 12.4829 64.8131 13.3211C64.2518 14.1557 63.5045 14.788 62.5786 15.2071L66.1145 21.1758H62.7171H62.7098ZM57.0997 8.26653V12.9454H60.3404C60.9346 12.9454 61.4413 12.7141 61.8678 12.2553C62.2943 11.7964 62.5057 11.24 62.5057 10.5933C62.5057 9.94657 62.2943 9.39378 61.8678 8.94215C61.4413 8.49053 60.9346 8.26291 60.3404 8.26291H57.0997V8.26653Z" fill="black"/>
<path d="M74.6845 21.4901C72.9056 21.4901 71.4439 20.9915 70.3029 19.9979C69.1619 19.0044 68.5933 17.6675 68.5933 15.9947V5.3472H71.7173V15.749C71.7173 16.58 71.9579 17.234 72.4354 17.7145C72.9129 18.195 73.6638 18.4371 74.6809 18.4371C75.6979 18.4371 76.4489 18.195 76.9264 17.7145C77.4076 17.2304 77.6445 16.5764 77.6445 15.749V5.3472H80.794V15.9947C80.794 17.6675 80.2254 19.0007 79.0844 19.9979C77.9434 20.9915 76.478 21.4901 74.6809 21.4901H74.6845Z" fill="black"/>
<path d="M90.8586 5.3472C93.0495 5.3472 94.8757 6.10954 96.3448 7.63062C97.8138 9.15169 98.5465 11.0304 98.5465 13.2597C98.5465 15.4889 97.8138 17.3677 96.3448 18.8887C94.8757 20.4098 93.0495 21.1722 90.8586 21.1722H84.5159V5.3472H90.8586ZM90.8586 18.1878C92.2438 18.1878 93.3666 17.7326 94.2342 16.8185C95.1017 15.908 95.5355 14.7193 95.5355 13.2561C95.5355 11.7928 95.1017 10.6077 94.2342 9.69726C93.3666 8.78678 92.2438 8.32793 90.8586 8.32793H87.6654V18.1842H90.8586V18.1878Z" fill="black"/>
<path d="M101.67 5.3472H104.816V21.1722H101.67V5.3472Z" fill="black"/>
<path d="M119.233 5.3472V8.33154H114.921V21.1722H111.772V8.33154H107.485V5.3472H119.233Z" fill="black"/>
<path d="M125.026 18.1914H131.755V21.1758H121.88V5.35083H131.642V8.33517H125.026V11.7025H131.07V14.6399H125.026V18.1878V18.1914Z" fill="black"/>
<path d="M152.012 5.3472V8.33154H147.699V21.1722H144.554V8.33154H140.267V5.3472H152.015H152.012Z" fill="black"/>
<path d="M160.611 21.4901C158.832 21.4901 157.374 20.9915 156.229 19.9979C155.088 19.0044 154.52 17.6675 154.52 15.9947V5.3472H157.644V15.749C157.644 16.58 157.884 17.234 158.362 17.7145C158.843 18.1987 159.59 18.4371 160.611 18.4371C161.632 18.4371 162.379 18.195 162.857 17.7145C163.334 17.234 163.575 16.5764 163.575 15.749V5.3472H166.724V15.9947C166.724 17.6675 166.155 19.0007 165.015 19.9979C163.874 20.9951 162.408 21.4901 160.611 21.4901Z" fill="black"/>
<path d="M170.442 5.3472H173.592V21.1722H170.442V5.3472Z" fill="black"/>
<path d="M188.009 5.3472V8.33154H183.697V21.1722H180.551V8.33154H176.26V5.3472H188.009Z" fill="black"/>
<path d="M190.652 5.3472H193.801V21.1722H190.652V5.3472Z" fill="black"/>
<path d="M211.091 19.1055C209.48 20.6953 207.515 21.4901 205.207 21.4901C202.9 21.4901 200.935 20.6953 199.335 19.1055C197.731 17.5158 196.929 15.5684 196.929 13.2597C196.929 10.951 197.731 9.00718 199.335 7.41385C200.939 5.82413 202.896 5.02927 205.207 5.02927C207.518 5.02927 209.48 5.82413 211.091 7.41385C212.702 9.00357 213.508 10.951 213.508 13.2597C213.508 15.5684 212.702 17.5122 211.091 19.1055ZM201.533 16.9811C202.521 17.953 203.746 18.4407 205.207 18.4407C206.669 18.4407 207.89 17.953 208.878 16.9811C209.866 16.0092 210.362 14.7699 210.362 13.2597C210.362 11.7494 209.87 10.5102 208.878 9.52746C207.89 8.54833 206.665 8.05696 205.207 8.05696C203.749 8.05696 202.524 8.54833 201.533 9.52746C200.545 10.5066 200.049 11.7494 200.049 13.2597C200.049 14.7699 200.541 16.0056 201.533 16.9811Z" fill="black"/>
<path d="M225.85 5.3472H229V21.1722H226.605L219.763 11.4965V21.1722H216.613V5.3472H219.008L225.85 15.0011V5.3472Z" fill="black"/>
</svg>
